<svg id="7190d6de-2a7a-41b7-b78a-61af763a90c8" data-name="Layer 2" xmlns="http://www.w3.org/2000/svg" viewBox="0 0 455.89 373.72"><title>Map House 1</title><path d="M139.88,266.5l160.5-77.76,163,74.33V454.5s-4,28.5-31,32.5l-258,1s-34.5,4-33.5-33Z" transform="translate(-73.69 -114.41)" fill="#ed1c24"/><path d="M104.12,263l192-96,204,96s47.33-2.67,22-42.67l-64-31.33c20-44-21-83-50.67-26l-98-45.33s-11.33-7.33-26.67,0S76.78,219,76.78,219,60.12,265,104.12,263Z" transform="translate(-73.69 -114.41)" fill="#ed1c24"/><rect x="254.81" y="245.59" width="37" height="37" rx="9" ry="9" fill="#fff"/><rect x="302.31" y="289.59" width="37" height="37" rx="9" ry="9" fill="#fff"/><rect x="254.81" y="289.59" width="37" height="37" rx="9" ry="9" fill="#fff"/><rect x="302.31" y="245.59" width="37" height="37" rx="9" ry="9" fill="#fff"/><rect x="103.31" y="226.09" width="88.5" height="126.83" rx="7.2" ry="7.2" fill="#fff"/></svg>