<?xml version="1.0" ?><!DOCTYPE svg  PUBLIC '-//W3C//DTD SVG 1.1//EN'  'http://www.w3.org/Graphics/SVG/1.1/DTD/svg11.dtd'><svg enable-background="new 0 0 24 24" height="24px" id="Layer_1" version="1.1" viewBox="0 0 24 24" width="24px" xml:space="preserve" xmlns="http://www.w3.org/2000/svg" xmlns:xlink="http://www.w3.org/1999/xlink"><g><g><g><path d="M19.7,23.5H4.3c-2.1,0-3.8-1.7-3.8-3.8V4.3c0-2.1,1.7-3.8,3.8-3.8h15.3c2.1,0,3.8,1.7,3.8,3.8v15.3     C23.5,21.8,21.8,23.5,19.7,23.5z M4.3,1.5c-1.6,0-2.8,1.3-2.8,2.8v15.3c0,1.6,1.3,2.8,2.8,2.8h15.3c1.6,0,2.8-1.3,2.8-2.8V4.3     c0-1.6-1.3-2.8-2.8-2.8H4.3z"/></g></g><g><g><path d="M12,19c-3.3,0-6-2.7-6-6v-2.4c0-3.3,2.7-6,6-6c3.3,0,6,2.7,6,6v2.4C18,16.3,15.3,19,12,19z M12,5.6c-2.8,0-5,2.2-5,5v2.4     c0,2.8,2.2,5,5,5s5-2.2,5-5v-2.4C17,7.8,14.8,5.6,12,5.6z"/></g><g><g><path d="M13.4,18.8c-0.3,0-0.5-0.2-0.5-0.5c0-0.6-0.5-1.1-1.1-1.1c-0.3,0-0.5-0.2-0.5-0.5s0.2-0.5,0.5-0.5      c1.1,0,2.1,0.9,2.1,2.1C13.9,18.5,13.7,18.8,13.4,18.8z"/></g><g><path d="M15,20.3c-1.1,0-2.1-0.9-2.1-2.1c0-0.3,0.2-0.5,0.5-0.5s0.5,0.2,0.5,0.5c0,0.6,0.5,1.1,1.1,1.1c0.3,0,0.5,0.2,0.5,0.5      S15.3,20.3,15,20.3z"/></g></g></g></g></svg>